<?xml version="1.0" encoding="utf-8"?>
<!-- Generator: Adobe Illustrator 16.0.0, SVG Export Plug-In . SVG Version: 6.00 Build 0)  -->
<!DOCTYPE svg PUBLIC "-//W3C//DTD SVG 1.1//EN" "http://www.w3.org/Graphics/SVG/1.1/DTD/svg11.dtd">
<svg version="1.1" id="Layer_1" xmlns="http://www.w3.org/2000/svg" xmlns:xlink="http://www.w3.org/1999/xlink" x="0px" y="0px"
	 width="107px" height="107px" viewBox="74.06 17.365 107 107" enable-background="new 74.06 17.365 107 107" xml:space="preserve">
<g>
	<g id="Controls">
		<g id="D71_4_">
		</g>
		<g id="D61_4_">
		</g>
		<g id="D51_4_">
		</g>
		<g id="Dolby">
		</g>
		<g id="Stereo_4_">
		</g>
		<g id="CC_4_">
		</g>
		<g id="HD_4_">
		</g>
		<g id="SD_4_">
		</g>
		<g id="Pause_02">
		</g>
		<g id="Play_02">
		</g>
		<g id="Left_02">
		</g>
		<g id="Right_02">
		</g>
		<g id="Down_02">
		</g>
		<g id="Up_02">
		</g>
		<g id="Urgent_02">
		</g>
		<g id="Info_02">
		</g>
		<g id="Help_02">
		</g>
		<g id="OK_02">
		</g>
		<g id="Remove__02">
		</g>
		<g id="Minus_02">
		</g>
		<g id="Plus_02">
		</g>
		<g id="Pause_01">
		</g>
		<g id="Play_01">
		</g>
		<g id="Left_01">
		</g>
		<g id="Right_01">
		</g>
		<g id="Down_01">
		</g>
		<g id="Up_01">
		</g>
		<g id="Urgent_01">
		</g>
		<g id="Info_01">
		</g>
		<g id="Help_01">
		</g>
		<g id="OK_01">
			<g>
				<g id="OK_Stroke">
					<g>
						<path fill="#E6E8E8" d="M127.56,17.365c-29.425,0-53.5,24.074-53.5,53.5c0,29.427,24.075,53.5,53.5,53.5
							c29.424,0,53.5-24.073,53.5-53.5C181.06,41.439,156.984,17.365,127.56,17.365z M128.087,116.505
							c-25.39,0-46.163-20.775-46.163-46.166c0-25.391,20.773-46.165,46.163-46.165c25.393,0,46.165,20.773,46.165,46.165
							C174.252,95.729,153.48,116.505,128.087,116.505z"/>
					</g>
				</g>
			</g>
		</g>
		<g id="Remove_01">
		</g>
		<g id="Minus_01">
		</g>
		<g id="Plus_01">
		</g>
		<g id="Chevron_Light_Down_2_">
		</g>
		<g id="Chevron_Light_Up_2_">
		</g>
		<g id="Chevron_Heavy_Down_1_">
		</g>
		<g id="Chevron_Heavy_Up_3_">
		</g>
		<g id="Chevron_Light_Right_2_">
		</g>
		<g id="Chevron_Light_Left_2_">
		</g>
		<g id="Chevron_Heavy_Right_2_">
		</g>
		<g id="Chevron_Heavy_Left_2_">
		</g>
		<g id="Random_2_">
		</g>
		<g id="Rotation_Lock_4_">
		</g>
		<g id="Replay_1_">
		</g>
		<g id="Rotation_3_">
		</g>
		<g id="Refresh_2_">
		</g>
		<g id="Power_3_">
		</g>
		<g id="Transfer_4_">
		</g>
		<g id="Retweet_2_">
		</g>
		<g id="Loop_2_">
		</g>
		<g id="Delete_3_">
		</g>
		<g id="Brighten_3_">
		</g>
		<g id="Dim_3_">
		</g>
		<g id="Screen_Fit_4_">
		</g>
		<g id="Screen_Fill_3_">
		</g>
		<g id="Down_03">
		</g>
		<g id="Up_03">
		</g>
		<g id="Right_03">
		</g>
		<g id="Left_03">
		</g>
		<g id="Bell_3_">
		</g>
		<g id="Bell_Mute_4_">
		</g>
		<g id="Playlist_3_">
		</g>
		<g id="Octave_2_">
		</g>
		<g id="Quaver_2_">
		</g>
		<g id="Earbuds_4_">
		</g>
		<g id="Mute_Mic_1_">
		</g>
		<g id="Mic_4_">
		</g>
		<g id="Volume_Up">
		</g>
		<g id="Volume_Down">
		</g>
		<g id="Volume_Mute_4_">
		</g>
		<g id="Volume_3_">
		</g>
		<g id="Maximize">
		</g>
		<g id="Fullscreen_Enter_2_">
		</g>
		<g id="Fullscreen_Exit_2_">
		</g>
		<g id="Eject_2_">
		</g>
		<g id="Step_Forward_2_">
		</g>
		<g id="Fast-forward_1_">
		</g>
		<g id="Forward_2_">
		</g>
		<g id="Stop_2_">
		</g>
		<g id="Pause_2_">
		</g>
		<g id="Play_2_">
		</g>
		<g id="Rewind_2_">
		</g>
		<g id="Fast-backward">
		</g>
		<g id="Step_Backward_2_">
		</g>
		<g id="Record_2_">
		</g>
	</g>
	<g id="g2984">
		<g id="g2982" transform="matrix(0.93749991,0,0,0.93749991,16.000024,16.000025)">
			<path id="rect6504" fill="#1ABC9C" d="M142.602,40.879c-2.058-2.058-5.372-2.058-7.427,0l-24.148,24.145l-8.204-8.203
				c-2.058-2.058-5.37-2.058-7.428,0c-2.057,2.057-2.057,5.37,0,7.429l11.918,11.917c2.058,2.057,5.371,2.057,7.429,0l27.86-27.859
				C144.659,46.249,144.659,42.936,142.602,40.879z"/>
		</g>
	</g>
</g>
</svg>
